# xmcd
#
# Track frame offsets:
#	150
#	15697
#	29542
#	44645
#	58060
#	71880
#	88610
#	102630
#	116290
#	131535
#	147630
#	167137
#	182817
#
# Disc length: 2632 seconds
#
# Revision: 1
# Processed by: cddbd v1.4PL0 Copyright (c) Steve Scherf et al.
# Submitted via: audiograbber 1.80
#
DISCID=c50a460d
DTITLE=Joan Kennedy - A Dozen Red Roses
DYEAR=1900
DGENRE=
TTITLE0=Promised Land
TTITLE1=Don't Look In My Eyes
TTITLE2=Candle In The Window
TTITLE3=Working Man's Daughter
TTITLE4=Breakin' All Over Town
TTITLE5=Wild And Free
TTITLE6=Family Pride
TTITLE7=Mothers And Daughters
TTITLE8=Trouble With Love
TTITLE9=Talk To My Heart
TTITLE10=Just Can't Let Go
TTITLE11=One Dozen Roses
TTITLE12=A Dozen Red Roses
EXTD=
EXTT0=
EXTT1=
EXTT2=
EXTT3=
EXTT4=
EXTT5=
EXTT6=
EXTT7=
EXTT8=
EXTT9=
EXTT10=
EXTT11=
EXTT12=
PLAYORDER=
